<?xml version="1.0" encoding="UTF-8" standalone="no"?>
<!DOCTYPE svg PUBLIC "-//W3C//DTD SVG 1.1//EN" "http://www.w3.org/Graphics/SVG/1.1/DTD/svg11.dtd">
<svg xmlns="http://www.w3.org/2000/svg" version="1.1" viewBox="0.00 0.00 1024.00 1024.00">
<g stroke-width="2.00" fill="none" stroke-linecap="butt">
<path stroke="#c1c1c1" vector-effect="non-scaling-stroke" d="
  M 217.61 526.88
  A 0.39 0.39 0.0 0 1 218.00 526.50
  L 488.53 526.50
  Q 489.10 526.50 489.14 525.93
  Q 489.84 516.60 489.35 507.24
  C 486.09 444.95 465.29 383.66 412.06 346.76
  C 379.88 324.46 339.88 319.14 301.74 323.75
  C 202.97 335.70 148.42 430.29 154.87 522.80
  C 159.47 588.85 181.74 650.12 243.07 682.79
  C 262.53 693.15 283.94 698.47 306.24 700.50
  C 355.84 705.00 404.21 695.75 442.05 661.56
  C 464.85 640.97 477.73 614.48 483.49 584.59
  A 0.50 0.50 0.0 0 0 483.00 584.00
  L 425.22 584.00
  Q 424.61 584.00 424.47 584.59
  C 421.12 598.44 416.30 609.71 406.29 620.04
  Q 382.97 644.10 349.51 648.34
  C 290.68 655.79 235.30 629.43 221.48 568.32
  Q 216.87 547.94 217.61 526.88"
/>
<path stroke="#c1c1c1" vector-effect="non-scaling-stroke" d="
  M 684.58 454.97
  A 0.32 0.32 0.0 0 1 684.05 454.96
  L 593.55 322.89
  A 0.32 0.32 0.0 0 0 593.28 322.75
  L 514.10 322.75
  A 0.32 0.32 0.0 0 0 513.84 323.26
  L 645.27 502.13
  A 0.32 0.32 0.0 0 1 645.28 502.51
  L 503.55 701.24
  A 0.32 0.32 0.0 0 0 503.81 701.75
  L 578.62 701.75
  A 0.32 0.32 0.0 0 0 578.89 701.61
  L 684.05 545.31
  A 0.32 0.32 0.0 0 1 684.59 545.31
  L 789.76 701.61
  A 0.32 0.32 0.0 0 0 790.03 701.75
  L 869.22 701.75
  A 0.32 0.32 0.0 0 0 869.48 701.24
  L 723.34 497.39
  A 0.32 0.32 0.0 0 1 723.34 497.01
  L 853.30 323.26
  A 0.32 0.32 0.0 0 0 853.04 322.75
  L 778.97 322.75
  A 0.32 0.32 0.0 0 0 778.71 322.88
  L 684.58 454.97"
/>
<path stroke="#c1c1c1" vector-effect="non-scaling-stroke" d="
  M 324.75 375.25
  C 263.63 373.70 221.48 417.90 217.72 476.93
  Q 217.68 477.50 218.25 477.50
  L 425.25 477.50
  Q 425.81 477.50 425.77 476.95
  C 422.38 421.39 381.83 376.69 324.75 375.25"
/>
</g>
<path fill="#828282" d="
  M 999.72 523.25
  Q 996.23 695.76 884.95 826.21
  Q 837.26 882.11 777.05 922.48
  C 675.44 990.63 549.72 1012.21 429.59 993.21
  Q 312.09 974.62 218.32 901.92
  C 118.03 824.16 48.19 714.71 29.74 588.25
  Q 17.42 503.79 32.52 418.76
  C 54.95 292.49 132.66 181.90 236.99 108.65
  C 306.16 60.09 385.81 32.31 470.69 25.92
  C 576.26 17.96 680.86 39.89 770.15 97.40
  Q 853.43 151.05 911.51 231.73
  C 973.28 317.55 1001.87 417.47 999.72 523.25
  Z
  M 217.61 526.88
  A 0.39 0.39 0.0 0 1 218.00 526.50
  L 488.53 526.50
  Q 489.10 526.50 489.14 525.93
  Q 489.84 516.60 489.35 507.24
  C 486.09 444.95 465.29 383.66 412.06 346.76
  C 379.88 324.46 339.88 319.14 301.74 323.75
  C 202.97 335.70 148.42 430.29 154.87 522.80
  C 159.47 588.85 181.74 650.12 243.07 682.79
  C 262.53 693.15 283.94 698.47 306.24 700.50
  C 355.84 705.00 404.21 695.75 442.05 661.56
  C 464.85 640.97 477.73 614.48 483.49 584.59
  A 0.50 0.50 0.0 0 0 483.00 584.00
  L 425.22 584.00
  Q 424.61 584.00 424.47 584.59
  C 421.12 598.44 416.30 609.71 406.29 620.04
  Q 382.97 644.10 349.51 648.34
  C 290.68 655.79 235.30 629.43 221.48 568.32
  Q 216.87 547.94 217.61 526.88
  Z
  M 684.58 454.97
  A 0.32 0.32 0.0 0 1 684.05 454.96
  L 593.55 322.89
  A 0.32 0.32 0.0 0 0 593.28 322.75
  L 514.10 322.75
  A 0.32 0.32 0.0 0 0 513.84 323.26
  L 645.27 502.13
  A 0.32 0.32 0.0 0 1 645.28 502.51
  L 503.55 701.24
  A 0.32 0.32 0.0 0 0 503.81 701.75
  L 578.62 701.75
  A 0.32 0.32 0.0 0 0 578.89 701.61
  L 684.05 545.31
  A 0.32 0.32 0.0 0 1 684.59 545.31
  L 789.76 701.61
  A 0.32 0.32 0.0 0 0 790.03 701.75
  L 869.22 701.75
  A 0.32 0.32 0.0 0 0 869.48 701.24
  L 723.34 497.39
  A 0.32 0.32 0.0 0 1 723.34 497.01
  L 853.30 323.26
  A 0.32 0.32 0.0 0 0 853.04 322.75
  L 778.97 322.75
  A 0.32 0.32 0.0 0 0 778.71 322.88
  L 684.58 454.97
  Z"
/>
<path fill="#ffffff" d="
  M 217.61 526.88
  Q 216.87 547.94 221.48 568.32
  C 235.30 629.43 290.68 655.79 349.51 648.34
  Q 382.97 644.10 406.29 620.04
  C 416.30 609.71 421.12 598.44 424.47 584.59
  Q 424.61 584.00 425.22 584.00
  L 483.00 584.00
  A 0.50 0.50 0.0 0 1 483.49 584.59
  C 477.73 614.48 464.85 640.97 442.05 661.56
  C 404.21 695.75 355.84 705.00 306.24 700.50
  C 283.94 698.47 262.53 693.15 243.07 682.79
  C 181.74 650.12 159.47 588.85 154.87 522.80
  C 148.42 430.29 202.97 335.70 301.74 323.75
  C 339.88 319.14 379.88 324.46 412.06 346.76
  C 465.29 383.66 486.09 444.95 489.35 507.24
  Q 489.84 516.60 489.14 525.93
  Q 489.10 526.50 488.53 526.50
  L 218.00 526.50
  A 0.39 0.39 0.0 0 0 217.61 526.88
  Z
  M 324.75 375.25
  C 263.63 373.70 221.48 417.90 217.72 476.93
  Q 217.68 477.50 218.25 477.50
  L 425.25 477.50
  Q 425.81 477.50 425.77 476.95
  C 422.38 421.39 381.83 376.69 324.75 375.25
  Z"
/>
<path fill="#ffffff" d="
  M 684.58 454.97
  L 778.71 322.88
  A 0.32 0.32 0.0 0 1 778.97 322.75
  L 853.04 322.75
  A 0.32 0.32 0.0 0 1 853.30 323.26
  L 723.34 497.01
  A 0.32 0.32 0.0 0 0 723.34 497.39
  L 869.48 701.24
  A 0.32 0.32 0.0 0 1 869.22 701.75
  L 790.03 701.75
  A 0.32 0.32 0.0 0 1 789.76 701.61
  L 684.59 545.31
  A 0.32 0.32 0.0 0 0 684.05 545.31
  L 578.89 701.61
  A 0.32 0.32 0.0 0 1 578.62 701.75
  L 503.81 701.75
  A 0.32 0.32 0.0 0 1 503.55 701.24
  L 645.28 502.51
  A 0.32 0.32 0.0 0 0 645.27 502.13
  L 513.84 323.26
  A 0.32 0.32 0.0 0 1 514.10 322.75
  L 593.28 322.75
  A 0.32 0.32 0.0 0 1 593.55 322.89
  L 684.05 454.96
  A 0.32 0.32 0.0 0 0 684.58 454.97
  Z"
/>
<path fill="#828282" d="
  M 324.75 375.25
  C 381.83 376.69 422.38 421.39 425.77 476.95
  Q 425.81 477.50 425.25 477.50
  L 218.25 477.50
  Q 217.68 477.50 217.72 476.93
  C 221.48 417.90 263.63 373.70 324.75 375.25
  Z"
/>
</svg>
