<?xml version="1.0" encoding="UTF-8" standalone="no"?>
<!DOCTYPE svg PUBLIC "-//W3C//DTD SVG 1.1//EN" "http://www.w3.org/Graphics/SVG/1.1/DTD/svg11.dtd">
<svg xmlns="http://www.w3.org/2000/svg" version="1.1" viewBox="0 0 1206 1464">
<path fill="#007acc" d="
  M 13.06 922.05
  C 191.48 630.94 370.65 340.28 549.31 49.31
  C 560.09 31.75 573.18 14.43 592.95 6.40
  C 631.10 -9.10 677.75 7.54 695.85 45.35
  Q 705.58 65.68 726.68 110.57
  C 883.41 443.97 1039.64 777.61 1196.01 1111.19
  Q 1201.58 1123.06 1203.27 1129.78
  C 1212.56 1166.57 1193.36 1209.38 1159.02 1225.77
  Q 1153.67 1228.32 1140.17 1232.34
  Q 759.46 1345.73 378.68 1458.89
  Q 368.57 1461.90 363.73 1462.55
  Q 328.48 1467.29 300.33 1447.19
  C 288.70 1438.89 280.16 1426.21 271.41 1412.62
  C 174.85 1262.58 86.06 1124.30 12.96 1009.80
  C -4.24 982.85 -3.32 948.78 13.06 922.05
  Z
  M 440.97 1351.74
  C 655.69 1287.95 891.73 1218.04 1076.69 1162.44
  Q 1080.86 1161.18 1083.72 1160.43
  C 1102.20 1155.53 1111.61 1138.20 1105.42 1119.51
  C 1104.85 1117.79 1103.49 1116.71 1102.86 1115.00
  Q 1102.00 1112.68 1101.95 1112.58
  C 961.27 809.01 818.02 506.64 677.53 202.99
  Q 671.77 190.55 669.93 186.24
  A 1.26 1.21 88.9 0 0 669.28 185.59
  C 658.45 181.07 641.39 180.09 633.92 191.01
  Q 631.96 193.89 630.72 199.83
  C 553.46 570.39 476.88 941.10 400.40 1311.83
  C 399.14 1317.91 396.57 1324.84 396.99 1330.50
  C 398.38 1349.29 419.46 1360.47 436.50 1353.35
  Q 438.89 1352.35 440.97 1351.74
  Z"
/>
</svg>
